<svg id="Layer_1" data-name="Layer 1" xmlns="http://www.w3.org/2000/svg" viewBox="0 0 661.63 623.79"><defs><style>.cls-1,.cls-8{fill:#fff;stroke-miterlimit:10;}.cls-1{stroke:#000;stroke-width:10px;}.cls-2{fill:#ff2479;}.cls-3{fill:#ff801b;}.cls-4{fill:#ffb712;}.cls-5,.cls-6{fill:#f93919;}.cls-6{opacity:0.81;}.cls-7{fill:#603813;}.cls-8{stroke:#fff;opacity:0.28;}.cls-9{font-size:195.78px;font-family:Myriad Pro;letter-spacing:14px;}.cls-10{letter-spacing:13px;}.cls-11{letter-spacing:12px;}</style></defs><title>Myntra</title><path class="cls-1" d="M807.68,338.7" transform="translate(-323.65 -54.02)"/><path class="cls-2" d="M528.6,62.68c31.12,70.61-75.71,438-175.39,391.53s78.17-384.93,158-398.62Z" transform="translate(-323.65 -54.02)"/><path class="cls-2" d="M796.17,54.85C868,83.07,1050.9,419.17,947.37,456.34S731.79,128,778.85,62Z" transform="translate(-323.65 -54.02)"/><path class="cls-3" d="M808.18,62.75c31.06,70.64-76.06,438-175.71,391.38S716.3,68.48,796.17,54.85C813.53,62,808.18,62.75,808.18,62.75Z" transform="translate(-323.65 -54.02)"/><path class="cls-4" d="M513.1,54.95c69.56,12.59,255.24,364,151.76,401.28S446.47,115.53,500.06,60.38Z" transform="translate(-323.65 -54.02)"/><path class="cls-5" d="M649.53,236.83c-45.09,93.87-67.85,193.56-17.07,217.31,14.15,6.62,28.45,4.88,42.49-3.17C714.9,422.53,691.43,327,649.53,236.83Z" transform="translate(-323.65 -54.02)"/><path class="cls-6" d="M528.6,61.78l-17.19-7-11.35,4.73c-22.53,23.19-19.72,107.56,8.4,185.94C531.26,167,541.15,90.26,528.6,61.78Z" transform="translate(-323.65 -54.02)"/><path class="cls-5" d="M810,61.78s-2.28-4.12-17.19-7l-11.35,4.73c-22.53,23.19-15.27,103.46,8.4,185.94C812.61,167,822.5,90.26,810,61.78Z" transform="translate(-323.65 -54.02)"/><path class="cls-7" d="M511.41,54.75c-55.06,6.43-175.82,202.35-187.07,322.45,31.8-156.53,143.32-303.32,188.46-304S649.53,236.83,649.53,236.83,570.71,66,511.41,54.75Z" transform="translate(-323.65 -54.02)"/><path class="cls-7" d="M975.58,377.21c-24.21-131.6-142-300.62-182.92-303.15-45.27-.71-143.14,162.77-143.14,162.77l19.05-38.55S745.11,66.64,795,54C868.24,80.83,972.68,308.33,975.58,377.21Z" transform="translate(-323.65 -54.02)"/><line class="cls-7" x1="344.93" y1="144.25" x2="344.93" y2="144.25"/><path class="cls-8" d="M493.84,471" transform="translate(-323.65 -54.02)"/><path class="cls-1" d="M1022.78,397.05" transform="translate(-323.65 -54.02)"/><path class="cls-8" d="M809.34,459" transform="translate(-323.65 -54.02)"/><text class="cls-9" transform="translate(0.69 574.84)">M<tspan class="cls-10" x="172.08" y="0">y</tspan><tspan class="cls-11" x="277.61" y="0">n</tspan><tspan class="cls-10" x="398.8" y="0">t</tspan><tspan class="cls-11" x="476.91" y="0">r</tspan><tspan class="cls-10" x="553.27" y="0">a</tspan></text></svg>